<svg xmlns="http://www.w3.org/2000/svg" viewBox="0 0 1813.58 408.19">
  <defs>
    <style>
      .cls-1 {
        fill: #9e6f21;
      }

      .cls-1, .cls-2 {
        stroke: #000;
        stroke-miterlimit: 10;
        stroke-width: 10px;
      }

      .cls-2 {
        fill: #5d9c59;
      }
    </style>
  </defs>
  <g id="Layer_2" data-name="Layer 2">
    <g id="Layer_1-2" data-name="Layer 1">
      <rect class="cls-1" x="5.34" y="47.79" width="1803.23" height="355.4"/>
      <path class="cls-2" d="M5,5H1808.58V168.4l-42.9-53.1s0,55.15-94,59.23c0,0,59.83-54.74-1.45-74.66s-29.11,39.83-29.11,39.83-46,10.73-75.06-16.85-73.53,59.75-73.53,59.75-52.09-44.43-36.77-76.6-42.89,29.11-42.89,29.11L1397.6,101.4l-41.36,73.54s10.72-61.28-18.39-70.47-19.91,41.36-19.91,41.36-39.83-13.79-39.83-30.64-7.66,53.62-76.6,62.81c0,0,42.9-64.34-32.17-49s38.3,82.72,38.3,82.72S1042.19,208.64,1007,132c0,0-50.55-27.57-49,38.3L918.11,129c-18,20.31-25,49.75-9.64,72.11a124.42,124.42,0,0,1-59.2-86.95A116.19,116.19,0,0,1,785,164.83c6.76-8.44,13.81-17.63,14.42-28.42s-8.77-22.65-19.29-20.19c-12.21,2.86-13.73,19.42-12.54,31.9a42.14,42.14,0,0,1-34.35-24.57c11.83,37.49-14.06,82.31-52.43,90.8,19.18-7.5,27.8-32.13,21.64-51.78s-23.86-34-43.16-41.18-40.25-8.29-60.83-9.08a107.94,107.94,0,0,1,45.77,46.46c-21.13-15.53-48.86-17.69-73.91-25.44s-51.2-26.55-50.75-52.78a82,82,0,0,0,7,70.23,144.76,144.76,0,0,1-45.73-37.06c-5.51,35.83-36.25,66.28-72.13,71.45a80.85,80.85,0,0,0,38.73-61.66,87.93,87.93,0,0,0-39.8,36.2,120.88,120.88,0,0,1-36.91-40.15l-2.93,31.95a70.51,70.51,0,0,0-15.92-34.75,104.64,104.64,0,0,1-65,51.63A56.72,56.72,0,0,0,313.1,120.3a81.78,81.78,0,0,1-36.42,25.84,150.79,150.79,0,0,0-32.23-54.39l5,64.12-45-15a105.48,105.48,0,0,0,53,76.22A213.33,213.33,0,0,1,143.92,113a77.26,77.26,0,0,1-42.25,60c8.88-12,18-24.7,20.4-39.48S117.59,101.35,103.28,97a75.6,75.6,0,0,0-9.57,44.3A88.47,88.47,0,0,1,65,101.41a74.35,74.35,0,0,1-34.3,51.1c9.89-11.1,20.16-23,23-37.55S48.83,82.57,34.16,80.11L5.09,171.87Z"/>
    </g>
  </g>
</svg>
